<svg xmlns="http://www.w3.org/2000/svg" viewBox="0 0 220 260" fill="none" aria-hidden="true">
  <g opacity="0.9">
    <path d="M108 248C104 200 96 160 88 122C80 84 78 52 86 24" stroke="#3f5a4c" stroke-width="2" stroke-linecap="round"/>
    <path d="M106 200C128 176 148 150 164 122" stroke="#5f7d6e" stroke-width="1.6" stroke-linecap="round"/>
    <path d="M104 176C82 156 62 134 50 108" stroke="#5f7d6e" stroke-width="1.6" stroke-linecap="round"/>

    <ellipse cx="56" cy="118" rx="24" ry="12" transform="rotate(-42 56 118)" fill="#8fa99a" opacity="0.85"/>
    <ellipse cx="44" cy="96" rx="18" ry="9" transform="rotate(-52 44 96)" fill="#5f7d6e" opacity="0.7"/>
    <ellipse cx="70" cy="138" rx="18" ry="9" transform="rotate(-30 70 138)" fill="#d5e3db"/>

    <ellipse cx="156" cy="130" rx="26" ry="12" transform="rotate(36 156 130)" fill="#5f7d6e" opacity="0.78"/>
    <ellipse cx="172" cy="108" rx="20" ry="10" transform="rotate(46 172 108)" fill="#8fa99a" opacity="0.85"/>
    <ellipse cx="140" cy="150" rx="16" ry="8" transform="rotate(26 140 150)" fill="#d5e3db"/>

    <ellipse cx="98" cy="58" rx="22" ry="11" transform="rotate(-18 98 58)" fill="#8fa99a" opacity="0.85"/>
    <ellipse cx="118" cy="40" rx="16" ry="8" transform="rotate(12 118 40)" fill="#d5e3db"/>
    <ellipse cx="78" cy="40" rx="14" ry="7" transform="rotate(-36 78 40)" fill="#5f7d6e" opacity="0.65"/>

    <g transform="translate(92 22)">
      <ellipse cx="0" cy="-12" rx="7" ry="12" fill="#d5e3db"/>
      <ellipse cx="11" cy="-4" rx="7" ry="12" transform="rotate(72)" fill="#8fa99a" opacity="0.8"/>
      <ellipse cx="7" cy="10" rx="7" ry="12" transform="rotate(144)" fill="#d5e3db"/>
      <ellipse cx="-7" cy="10" rx="7" ry="12" transform="rotate(-144)" fill="#8fa99a" opacity="0.75"/>
      <ellipse cx="-11" cy="-4" rx="7" ry="12" transform="rotate(-72)" fill="#d5e3db"/>
      <circle cx="0" cy="0" r="4" fill="#5f7d6e" opacity="0.5"/>
    </g>
  </g>
</svg>
